FFmpeg version SVN-r25716, Copyright (c) 2000-2010 the FFmpeg developers  built on Nov 10 2010 12:23:18 with gcc 4.1.2 20080704 (Red Hat 4.1.2-48)  configuration: --enable-libmp3lame --enable-shared --disable-mmx --arch=x86_64  libavutil     50.33. 0 / 50.33. 0  libavcore      0.12. 1 /  0.12. 1  libavcodec    52.94. 4 / 52.94. 4  libavformat   52.84. 0 / 52.84. 0  libavdevice   52. 2. 2 / 52. 2. 2  libavfilter    1.59. 0 /  1.59. 0  libswscale     0.12. 0 /  0.12. 0Input #0, avi, from '/RAID10/data/converted_video_files/47381.avi':  Duration: 00:00:07.95, start: 0.000000, bitrate: 20978 kb/s    Stream #0.0: Video: msvideo1, rgb555le, 1024x1024, 20 tbr, 20 tbn, 20 tbc[buffer @ 0x184c5490] w:1024 h:1024 pixfmt:rgb555le[ffsink @ 0x184c4920] auto-inserting filter 'auto-inserted scaler 0' between the filter 'src' and the filter 'out'[scale @ 0x184c3820] w:1024 h:1024 fmt:rgb555le -> w:1024 h:1024 fmt:yuv420p flags:0x4Output #0, flv, to '/RAID10/data/converted_video_files/47381.flv':  Metadata:    encoder         : Lavf52.84.0    Stream #0.0: Video: flv, yuv420p, 1024x1024, q=2-31, 600 kb/s, 1k tbn, 24 tbcStream mapping:  Stream #0.0 -> #0.0Press [q] to stop encodingframe=    8 fps=  0 q=6.3 size=     672kB time=0.37 bitrate=14726.1kbits/s    frame=   15 fps= 13 q=26.0 size=     757kB time=0.75 bitrate=8264.4kbits/s    frame=   26 fps= 15 q=31.0 size=     799kB time=1.29 bitrate=5071.3kbits/s    frame=   37 fps= 17 q=31.0 size=     841kB time=1.83 bitrate=3756.0kbits/s    frame=   48 fps= 17 q=31.0 size=     889kB time=2.38 bitrate=3066.6kbits/s    frame=   55 fps= 17 q=24.8 size=     923kB time=2.75 bitrate=2750.7kbits/s    frame=   65 fps= 17 q=31.0 size=     937kB time=3.25 bitrate=2361.6kbits/s    frame=   76 fps= 18 q=31.0 size=     975kB time=3.79 bitrate=2106.1kbits/s    frame=   87 fps= 18 q=31.0 size=    1013kB time=4.33 bitrate=1914.6kbits/s    frame=   98 fps= 18 q=31.0 size=    1051kB time=4.87 bitrate=1766.5kbits/s    frame=  109 fps= 19 q=31.0 size=    1090kB time=5.46 bitrate=1635.5kbits/s    frame=  120 fps= 19 q=31.0 size=    1128kB time=6.00 bitrate=1540.1kbits/s    frame=  128 fps= 19 q=31.0 size=    1162kB time=6.37 bitrate=1493.9kbits/s    frame=  138 fps= 19 q=31.0 size=    1172kB time=6.88 bitrate=1396.7kbits/s    frame=  149 fps= 19 q=31.0 size=    1210kB time=7.46 bitrate=1328.6kbits/s    frame=  159 fps= 19 q=31.0 Lsize=    1248kB time=7.96 bitrate=1284.8kbits/s    video:1246kB audio:0kB global headers:0kB muxing overhead 0.215926%